<svg width="24" height="24" viewBox="0 0 24 24" fill="none" xmlns="http://www.w3.org/2000/svg">
<g clip-path="url(#clip0_403_3015)">
<path d="M22.3189 4.43101L8.49985 18.249C8.40694 18.3423 8.29653 18.4163 8.17495 18.4668C8.05337 18.5173 7.92301 18.5433 7.79135 18.5433C7.6597 18.5433 7.52934 18.5173 7.40776 18.4668C7.28618 18.4163 7.17576 18.3423 7.08285 18.249L1.73885 12.9C1.64594 12.8067 1.53553 12.7327 1.41395 12.6822C1.29237 12.6317 1.16201 12.6057 1.03035 12.6057C0.8987 12.6057 0.768342 12.6317 0.64676 12.6822C0.525177 12.7327 0.414764 12.8067 0.321854 12.9C0.228577 12.9929 0.154565 13.1033 0.104063 13.2249C0.0535617 13.3465 0.027565 13.4769 0.027565 13.6085C0.027565 13.7402 0.0535617 13.8705 0.104063 13.9921C0.154565 14.1137 0.228577 14.2241 0.321854 14.317L5.66785 19.662C6.2318 20.2249 6.99605 20.5411 7.79285 20.5411C8.58966 20.5411 9.35391 20.2249 9.91785 19.662L23.7359 5.84701C23.829 5.75412 23.9029 5.64377 23.9533 5.52228C24.0037 5.40079 24.0296 5.27054 24.0296 5.13901C24.0296 5.00747 24.0037 4.87723 23.9533 4.75574C23.9029 4.63425 23.829 4.5239 23.7359 4.43101C23.6429 4.33773 23.5325 4.26372 23.4109 4.21322C23.2894 4.16272 23.159 4.13672 23.0274 4.13672C22.8957 4.13672 22.7653 4.16272 22.6438 4.21322C22.5222 4.26372 22.4118 4.33773 22.3189 4.43101Z" fill="#374957"/>
</g>
<defs>
<clipPath id="clip0_403_3015">
<rect width="24" height="24" fill="white"/>
</clipPath>
</defs>
</svg>
